<?xml version="1.0" encoding="UTF-8"?>
<svg id="Layer_1" data-name="Layer 1" xmlns="http://www.w3.org/2000/svg" viewBox="0 0 929.64 830.65">
  <path d="M572.97,650l-18.77,36.26-22.03,42.52-46.16,89.04c-8.83,17.09-33.26,17.11-42.13.03l-46.42-89.07-22.03-42.52v-.02s-18.77-36.21-18.77-36.21c-4.49-8.66-1.13-19.32,7.51-23.84l79.67-41.67c13.24-6.93,29.04-6.92,42.27.03l22.52,11.82,56.83,29.82c8.62,4.53,11.97,15.17,7.5,23.82Z"/>
  <polygon points="837.5 0 929.64 0 578.76 555.66 578.76 600.25 483.3 553.07 483.3 553.07 837.5 0 837.5 0"/>
  <polygon points="92.14 0 0 0 350.88 555.66 350.88 600.25 446.34 553.07 446.34 553.07 92.14 0 92.14 0"/>
  <polygon points="464.82 384.02 132.2 0 463.17 516.8 464.82 519.17 466.47 516.8 797.43 0 464.82 384.02 464.82 384.02"/>
</svg>